<svg width="609" height="421" viewBox="0 0 609 421" fill="none" xmlns="http://www.w3.org/2000/svg">
<path d="M517.186 189C517.186 293.382 432.567 378 328.186 378C223.804 378 139.186 293.382 139.186 189C139.186 84.6182 223.804 0 328.186 0C432.567 0 517.186 84.6182 517.186 189Z" fill="url(#paint0_linear_5642_6913)"/>
<path d="M27.0668 402L73.172 400.491L62.2939 375.878C53.0274 373.828 47.648 371.977 41.5669 358.879C35.0669 344.879 32.6855 342 28.1855 340L27.0668 402Z" fill="#111928"/>
<path d="M28.1855 340L28.1855 402L22.4336 402.719C21.2399 402.868 20.1855 401.937 20.1855 400.734L20.1855 342C20.1855 340.895 21.081 340 22.1855 340L28.1855 340Z" fill="#76A9FA"/>
<path d="M213.32 331.449L61.9999 358.18C60.9747 358.361 60.2599 359.298 60.3564 360.334L63.9945 399.444C64.0991 400.569 65.1138 401.384 66.2347 401.243L227.686 381L374.186 402.5L295.186 333L241.241 329.827C231.903 329.278 222.532 329.822 213.32 331.449Z" fill="#1C64F2"/>
<path d="M213.32 331.449L61.9999 358.18C60.9747 358.361 60.2599 359.298 60.3564 360.334L63.9945 399.444C64.0991 400.569 65.1138 401.384 66.2347 401.243L227.686 381L374.186 402.5L295.186 333L241.241 329.827C231.903 329.278 222.532 329.822 213.32 331.449Z" fill="url(#paint1_linear_5642_6913)"/>
<path fill-rule="evenodd" clip-rule="evenodd" d="M76.5504 399.95L72.6472 356.299L70.6704 356.648L74.5647 400.199L76.5504 399.95Z" fill="#A4CAFE"/>
<path d="M319.186 215L370.686 175.5L361.686 238.5L320.686 255L319.186 215Z" fill="#F9FAFB"/>
<path d="M319.186 215L370.686 175.5L361.686 238.5L320.686 255L319.186 215Z" fill="url(#paint2_linear_5642_6913)"/>
<path d="M357.569 101.209C358.233 94.6136 364.178 81.4668 383.784 83.0129C386.918 83.648 394.186 88.1763 398.186 101.209C403.186 117.5 420.186 108 426.686 122.5C433.186 137 418.686 144 422.686 153.5C426.686 163 427.686 173 424.186 178C420.519 171.833 410.786 156.2 397.186 151L380.186 132L359.186 105.5L357.569 101.209Z" fill="#111928"/>
<path d="M407.977 80.3947C400.869 89.3211 388.857 91.5807 381.147 85.4416C373.436 79.3025 372.947 67.0894 380.054 58.163C387.161 49.2366 399.174 46.977 406.884 53.1161C414.595 59.2552 415.084 71.4682 407.977 80.3947Z" fill="#111928"/>
<path d="M381.585 161.329L373.42 138.538L383.499 125.911L397.631 151.154C394.96 155.78 385.346 160.02 381.585 161.329Z" fill="#FDBA8C"/>
<path d="M381.585 161.329L373.42 138.538L383.499 125.911L397.631 151.154C394.96 155.78 385.346 160.02 381.585 161.329Z" fill="url(#paint3_linear_5642_6913)"/>
<path d="M389.321 112.782C392.542 114.701 387.209 140.27 370.724 140.776C365.027 140.95 361.59 136.082 359.613 129.418C359.465 128.921 359.089 129.604 358.958 129.089C358.83 128.587 358.946 126.888 358.832 126.371C357.006 118.056 357.009 107.946 357.568 101.209C360.296 102.408 366.424 106.251 369.115 112.028C372.479 119.249 378.601 120.767 381.1 117.466C383.792 113.91 386.099 110.862 389.321 112.782Z" fill="#FDBA8C"/>
<path fill-rule="evenodd" clip-rule="evenodd" d="M358.487 118.572C358.861 118.576 359.161 118.883 359.157 119.257L359.053 128.576C359.051 128.742 359.203 128.868 359.366 128.835L363.281 128.051C363.648 127.977 364.005 128.215 364.078 128.582C364.152 128.949 363.914 129.306 363.547 129.379L359.632 130.164C358.625 130.366 357.687 129.588 357.698 128.561L357.802 119.242C357.806 118.868 358.113 118.568 358.487 118.572Z" fill="#111928"/>
<path fill-rule="evenodd" clip-rule="evenodd" d="M365.434 133.273C366.238 132.961 367.049 132.49 368.277 131.736C368.596 131.54 369.013 131.64 369.209 131.959C369.404 132.278 369.304 132.695 368.986 132.891C367.768 133.638 366.859 134.173 365.925 134.536C364.973 134.906 364.022 135.087 362.719 135.178C362.345 135.204 362.022 134.922 361.996 134.549C361.97 134.176 362.251 133.852 362.624 133.826C363.841 133.742 364.647 133.579 365.434 133.273Z" fill="#111928"/>
<path fill-rule="evenodd" clip-rule="evenodd" d="M386.801 119.564C387.059 118.602 386.873 117.709 386.51 116.813C386.37 116.466 386.537 116.071 386.884 115.931C387.23 115.79 387.625 115.957 387.766 116.304C388.185 117.34 388.474 118.554 388.11 119.914C387.748 121.267 386.769 122.65 384.897 124.101C384.602 124.33 384.176 124.276 383.947 123.981C383.718 123.685 383.772 123.259 384.068 123.03C385.801 121.687 386.542 120.533 386.801 119.564Z" fill="#111928"/>
<path fill-rule="evenodd" clip-rule="evenodd" d="M367.126 125.1C367.486 123.712 367.547 121.77 367.144 119.631C366.742 117.491 365.98 115.704 365.141 114.542C364.225 113.274 363.573 113.18 363.394 113.213C363.215 113.247 362.642 113.572 362.249 115.085C361.889 116.473 361.828 118.415 362.231 120.555C362.633 122.694 363.395 124.482 364.234 125.644C365.15 126.911 365.802 127.006 365.981 126.972C366.16 126.938 366.733 126.614 367.126 125.1ZM366.258 128.446C368.429 128.038 369.486 123.967 368.619 119.354C367.751 114.74 365.288 111.331 363.117 111.739C360.946 112.147 359.889 116.218 360.756 120.832C361.624 125.446 364.087 128.855 366.258 128.446Z" fill="#111928"/>
<path fill-rule="evenodd" clip-rule="evenodd" d="M357.126 125.1C357.486 123.712 357.547 121.77 357.144 119.631C356.742 117.491 355.98 115.704 355.141 114.542C354.225 113.274 353.573 113.18 353.394 113.213C353.215 113.247 352.642 113.572 352.249 115.085C351.889 116.473 351.828 118.415 352.231 120.555C352.633 122.694 353.395 124.482 354.234 125.644C355.15 126.911 355.802 127.006 355.981 126.972C356.16 126.938 356.733 126.614 357.126 125.1ZM356.258 128.446C358.429 128.038 359.486 123.967 358.619 119.354C357.751 114.74 355.288 111.331 353.117 111.739C350.946 112.147 349.889 116.218 350.756 120.832C351.624 125.446 354.087 128.855 356.258 128.446Z" fill="#111928"/>
<path d="M180.186 396L202.186 359L173.686 359C167.277 366 157.662 380.7 143.495 383.5C129.328 386.3 120.053 393 117.186 396H180.186Z" fill="#111928"/>
<path d="M117.186 396H180.186L176.761 401.992C176.405 402.615 175.743 403 175.025 403H116.632C115.096 403 114.133 401.341 114.895 400.008L117.186 396Z" fill="#76A9FA"/>
<path d="M377.686 403C426.486 402.6 428.352 335 423.186 301.5L371.686 294.5C349.019 279.667 299.886 247.3 284.686 236.5C265.686 223 246.686 222 229.686 240.5C216.479 254.871 171.088 323.523 148.174 358.924C147.314 360.254 148.273 362 149.857 362H205.593C206.274 362 206.908 361.654 207.276 361.081L255.186 286.5C275.686 325.333 328.886 403.4 377.686 403Z" fill="#1C64F2"/>
<path d="M377.686 403C426.486 402.6 428.352 335 423.186 301.5L371.686 294.5C349.019 279.667 299.886 247.3 284.686 236.5C265.686 223 246.686 222 229.686 240.5C216.479 254.871 171.088 323.523 148.174 358.924C147.314 360.254 148.273 362 149.857 362H205.593C206.274 362 206.908 361.654 207.276 361.081L255.186 286.5C275.686 325.333 328.886 403.4 377.686 403Z" fill="url(#paint4_linear_5642_6913)"/>
<path fill-rule="evenodd" clip-rule="evenodd" d="M214.394 350H153.969C153.53 350.674 153.096 351.341 152.667 352H213.11L214.394 350Z" fill="#A4CAFE"/>
<path d="M428.686 304.5L403.186 303L426.686 251.5L428.686 304.5Z" fill="#F9FAFB"/>
<path d="M428.686 304.5L403.186 303L426.686 251.5L428.686 304.5Z" fill="url(#paint5_linear_5642_6913)"/>
<path d="M395.185 312.5C381.816 315.842 367.125 310.536 360.155 306.825C359.293 306.366 358.943 305.333 359.296 304.423L364.685 290.5L355.685 284C354.852 262.833 353.685 219.8 355.685 203C357.685 186.2 372.852 170 380.185 164L403.685 154C411.352 155 427.485 167.2 430.685 208C434.685 259 413.185 308 395.185 312.5Z" fill="#F9FAFB"/>
<path d="M375.171 270.317L373.186 268L354.686 254L365.686 219.5L391.186 239L376.839 270.085C376.533 270.747 375.646 270.87 375.171 270.317Z" fill="url(#paint6_linear_5642_6913)"/>
<path d="M380.186 165.5C379.786 162.7 380.686 160.667 381.186 160C388.386 158.8 395.186 153.5 397.686 151C400.486 151.8 402.852 153.333 403.686 154C403.186 155 400.786 157.8 395.186 161C389.586 164.2 382.852 165.333 380.186 165.5Z" fill="#F9FAFB"/>
<path d="M380.186 165.5C379.786 162.7 380.686 160.667 381.186 160C388.386 158.8 395.186 153.5 397.686 151C400.486 151.8 402.852 153.333 403.686 154C403.186 155 400.786 157.8 395.186 161C389.586 164.2 382.852 165.333 380.186 165.5Z" fill="url(#paint7_linear_5642_6913)"/>
<path d="M333.686 156.443C330.186 125 292.852 125.499 284.186 125C274.586 125 268.852 129.658 267.186 131.987C281.686 138.975 287.686 158.939 281.186 193.876C274.686 228.813 281.186 283.215 314.186 321.646C347.186 360.077 432.186 338.616 453.686 366.066C469.527 386.292 489.129 397.91 498.898 402.088C500.402 402.732 502.023 403 503.659 403H556.186C533.686 403 510.186 373.553 493.186 357.582C476.186 341.61 431.686 346.102 404.186 341.61C376.686 337.118 349.186 308.67 336.186 271.237C323.186 233.804 337.036 186.54 333.686 156.443Z" fill="#A4CAFE"/>
<path d="M333.686 156.443C330.186 125 292.852 125.499 284.186 125C274.586 125 268.852 129.658 267.186 131.987C281.686 138.975 287.686 158.939 281.186 193.876C274.686 228.813 281.186 283.215 314.186 321.646C347.186 360.077 432.186 338.616 453.686 366.066C469.527 386.292 489.129 397.91 498.898 402.088C500.402 402.732 502.023 403 503.659 403H556.186C533.686 403 510.186 373.553 493.186 357.582C476.186 341.61 431.686 346.102 404.186 341.61C376.686 337.118 349.186 308.67 336.186 271.237C323.186 233.804 337.036 186.54 333.686 156.443Z" fill="url(#paint8_linear_5642_6913)"/>
<path d="M333.686 156.443C330.186 125 292.852 125.499 284.186 125C274.586 125 268.852 129.658 267.186 131.987C281.686 138.975 287.686 158.939 281.186 193.876C274.686 228.813 281.186 283.215 314.186 321.646C347.186 360.077 432.186 338.616 453.686 366.066C469.527 386.292 489.129 397.91 498.898 402.088C500.402 402.732 502.023 403 503.659 403H556.186C533.686 403 510.186 373.553 493.186 357.582C476.186 341.61 431.686 346.102 404.186 341.61C376.686 337.118 349.186 308.67 336.186 271.237C323.186 233.804 337.036 186.54 333.686 156.443Z" fill="url(#paint9_linear_5642_6913)"/>
<path d="M308.686 199C311.186 212 336.185 240 364.686 291L373.186 268C360.852 251.666 335.485 217.6 332.685 212C330.176 206.981 326.943 201.319 324.86 198.398C324.471 197.854 323.761 197.669 323.14 197.918C322.344 198.236 321.97 199.15 322.313 199.935L325.186 206.5C319.519 199.666 306.72 188.779 308.686 199Z" fill="#FDBA8C"/>
<path d="M308.686 199C311.186 212 336.185 240 364.686 291L373.186 268C360.852 251.666 335.485 217.6 332.685 212C330.176 206.981 326.943 201.319 324.86 198.398C324.471 197.854 323.761 197.669 323.14 197.918C322.344 198.236 321.97 199.15 322.313 199.935L325.186 206.5C319.519 199.666 306.72 188.779 308.686 199Z" fill="url(#paint10_linear_5642_6913)"/>
<path d="M296.686 154C296.286 157.2 287.852 166.667 283.686 171C283.186 186 281.186 195.167 279.686 205C277.352 194.333 273.386 171.2 276.186 164C279.686 155 289.186 150.5 291.686 150C294.186 149.5 297.186 150 296.686 154Z" fill="#FDBA8C"/>
<path d="M296.686 154C296.286 157.2 287.852 166.667 283.686 171C283.186 186 281.186 195.167 279.686 205C277.352 194.333 273.386 171.2 276.186 164C279.686 155 289.186 150.5 291.686 150C294.186 149.5 297.186 150 296.686 154Z" fill="url(#paint11_linear_5642_6913)"/>
<path d="M240.686 223.177C216.668 339.537 149.017 390.702 116.702 402.468C115.68 402.84 114.631 403 113.544 403H76.8358C75.8186 403 75.418 401.646 76.2771 401.102C96.8285 388.075 138.497 354.13 163.186 307.328C195.686 245.717 195.186 196.629 206.186 161.566C214.986 133.515 232.852 125.501 240.686 125H284.186C255.786 125 245.442 200.135 240.686 223.177Z" fill="#E1EFFE"/>
<path d="M240.686 223.177C216.668 339.537 149.017 390.702 116.702 402.468C115.68 402.84 114.631 403 113.544 403H76.8358C75.8186 403 75.418 401.646 76.2771 401.102C96.8285 388.075 138.497 354.13 163.186 307.328C195.686 245.717 195.186 196.629 206.186 161.566C214.986 133.515 232.852 125.501 240.686 125H284.186C255.786 125 245.442 200.135 240.686 223.177Z" fill="url(#paint12_linear_5642_6913)" fill-opacity="0.5"/>
<path fill-rule="evenodd" clip-rule="evenodd" d="M246.402 149.066C246.131 148.834 246.099 148.425 246.332 148.154L251.002 142.705C251.496 142.13 252.398 142.169 252.839 142.786L254.579 145.222C254.786 145.513 254.719 145.917 254.428 146.125C254.137 146.333 253.733 146.266 253.525 145.975L251.88 143.671L247.315 148.996C247.082 149.267 246.674 149.299 246.402 149.066Z" fill="#76A9FA"/>
<path d="M242.997 145.466C242.997 145.823 242.707 146.113 242.349 146.113L219.833 146.113C219.475 146.113 219.186 145.823 219.186 145.466C219.186 145.108 219.475 144.819 219.833 144.819L242.349 144.819C242.707 144.819 242.997 145.108 242.997 145.466Z" fill="#76A9FA"/>
<path fill-rule="evenodd" clip-rule="evenodd" d="M239.402 169.066C239.131 168.834 239.099 168.425 239.332 168.154L244.002 162.705C244.496 162.13 245.398 162.169 245.839 162.786L247.579 165.222C247.786 165.513 247.719 165.917 247.428 166.125C247.137 166.333 246.733 166.266 246.525 165.975L244.88 163.671L240.315 168.996C240.082 169.267 239.674 169.299 239.402 169.066Z" fill="#76A9FA"/>
<path d="M235.997 165.466C235.997 165.823 235.707 166.113 235.349 166.113L212.833 166.113C212.475 166.113 212.186 165.823 212.186 165.466C212.186 165.108 212.475 164.819 212.833 164.819L235.349 164.819C235.707 164.819 235.997 165.108 235.997 165.466Z" fill="#76A9FA"/>
<path fill-rule="evenodd" clip-rule="evenodd" d="M234.402 189.066C234.131 188.834 234.099 188.425 234.332 188.154L239.002 182.705C239.496 182.13 240.398 182.169 240.839 182.786L242.579 185.222C242.786 185.513 242.719 185.917 242.428 186.125C242.137 186.333 241.733 186.266 241.525 185.975L239.88 183.671L235.315 188.996C235.082 189.267 234.674 189.299 234.402 189.066Z" fill="#76A9FA"/>
<path d="M230.997 185.466C230.997 185.823 230.707 186.113 230.349 186.113L207.833 186.113C207.475 186.113 207.186 185.823 207.186 185.466C207.186 185.108 207.475 184.819 207.833 184.819L230.349 184.819C230.707 184.819 230.997 185.108 230.997 185.466Z" fill="#76A9FA"/>
<path fill-rule="evenodd" clip-rule="evenodd" d="M226.402 229.066C226.131 228.834 226.099 228.425 226.332 228.154L231.002 222.705C231.496 222.13 232.398 222.169 232.839 222.786L234.579 225.222C234.786 225.513 234.719 225.917 234.428 226.125C234.137 226.333 233.733 226.266 233.525 225.975L231.88 223.671L227.315 228.996C227.082 229.267 226.674 229.299 226.402 229.066Z" fill="#76A9FA"/>
<path d="M222.997 225.466C222.997 225.823 222.707 226.113 222.349 226.113L199.833 226.113C199.475 226.113 199.186 225.823 199.186 225.466C199.186 225.108 199.475 224.819 199.833 224.819L222.349 224.819C222.707 224.819 222.997 225.108 222.997 225.466Z" fill="#76A9FA"/>
<path fill-rule="evenodd" clip-rule="evenodd" d="M222.402 249.066C222.131 248.834 222.099 248.425 222.332 248.154L227.002 242.705C227.496 242.13 228.398 242.169 228.839 242.786L230.579 245.222C230.786 245.513 230.719 245.917 230.428 246.125C230.137 246.333 229.733 246.266 229.525 245.975L227.88 243.671L223.315 248.996C223.082 249.267 222.674 249.299 222.402 249.066Z" fill="#76A9FA"/>
<path d="M218.997 245.466C218.997 245.823 218.707 246.113 218.349 246.113L195.833 246.113C195.475 246.113 195.186 245.823 195.186 245.466C195.186 245.108 195.475 244.819 195.833 244.819L218.349 244.819C218.707 244.819 218.997 245.108 218.997 245.466Z" fill="#76A9FA"/>
<path fill-rule="evenodd" clip-rule="evenodd" d="M215.402 269.066C215.131 268.834 215.099 268.425 215.332 268.154L220.002 262.705C220.496 262.13 221.398 262.169 221.839 262.786L223.579 265.222C223.786 265.513 223.719 265.917 223.428 266.125C223.137 266.333 222.733 266.266 222.525 265.975L220.88 263.671L216.315 268.996C216.082 269.267 215.674 269.299 215.402 269.066Z" fill="#76A9FA"/>
<path d="M211.997 265.466C211.997 265.823 211.707 266.113 211.349 266.113L188.833 266.113C188.475 266.113 188.186 265.823 188.186 265.466C188.186 265.108 188.475 264.819 188.833 264.819L211.349 264.819C211.707 264.819 211.997 265.108 211.997 265.466Z" fill="#76A9FA"/>
<path fill-rule="evenodd" clip-rule="evenodd" d="M197.402 309.066C197.131 308.834 197.099 308.425 197.332 308.154L202.002 302.705C202.496 302.13 203.398 302.169 203.839 302.786L205.579 305.222C205.786 305.513 205.719 305.917 205.428 306.125C205.137 306.333 204.733 306.266 204.525 305.975L202.88 303.671L198.315 308.996C198.082 309.267 197.674 309.299 197.402 309.066Z" fill="#76A9FA"/>
<path d="M193.997 305.466C193.997 305.823 193.707 306.113 193.349 306.113L170.833 306.113C170.475 306.113 170.186 305.823 170.186 305.466C170.186 305.108 170.475 304.819 170.833 304.819L193.349 304.819C193.707 304.819 193.997 305.108 193.997 305.466Z" fill="#76A9FA"/>
<path fill-rule="evenodd" clip-rule="evenodd" d="M187.402 329.066C187.131 328.834 187.099 328.425 187.332 328.154L192.002 322.705C192.496 322.13 193.398 322.169 193.839 322.786L195.579 325.222C195.786 325.513 195.719 325.917 195.428 326.125C195.137 326.333 194.733 326.266 194.525 325.975L192.88 323.671L188.315 328.996C188.082 329.267 187.674 329.299 187.402 329.066Z" fill="#76A9FA"/>
<path d="M183.997 325.466C183.997 325.823 183.707 326.113 183.349 326.113L160.833 326.113C160.475 326.113 160.186 325.823 160.186 325.466C160.186 325.108 160.475 324.819 160.833 324.819L183.349 324.819C183.707 324.819 183.997 325.108 183.997 325.466Z" fill="#76A9FA"/>
<path fill-rule="evenodd" clip-rule="evenodd" d="M173.402 349.066C173.131 348.834 173.099 348.425 173.332 348.154L178.002 342.705C178.496 342.13 179.398 342.169 179.839 342.786L181.579 345.222C181.786 345.513 181.719 345.917 181.428 346.125C181.137 346.333 180.733 346.266 180.525 345.975L178.88 343.671L174.315 348.996C174.082 349.267 173.674 349.299 173.402 349.066Z" fill="#76A9FA"/>
<path d="M169.997 345.466C169.997 345.823 169.707 346.113 169.349 346.113L146.833 346.113C146.475 346.113 146.186 345.823 146.186 345.466C146.186 345.108 146.475 344.819 146.833 344.819L169.349 344.819C169.707 344.819 169.997 345.108 169.997 345.466Z" fill="#76A9FA"/>
<defs>
<linearGradient id="paint0_linear_5642_6913" x1="328.186" y1="0" x2="328.186" y2="378" gradientUnits="userSpaceOnUse">
<stop stop-color="#E1EFFE"/>
<stop offset="1" stop-color="#E1EFFE" stop-opacity="0"/>
</linearGradient>
<linearGradient id="paint1_linear_5642_6913" x1="598.186" y1="-82.4999" x2="333.605" y2="-166.998" gradientUnits="userSpaceOnUse">
<stop stop-color="#111928"/>
<stop offset="1" stop-color="#111928" stop-opacity="0"/>
</linearGradient>
<linearGradient id="paint2_linear_5642_6913" x1="385.186" y1="255" x2="330.801" y2="169.856" gradientUnits="userSpaceOnUse">
<stop stop-color="#A4CAFE"/>
<stop offset="1" stop-color="#A4CAFE" stop-opacity="0"/>
</linearGradient>
<linearGradient id="paint3_linear_5642_6913" x1="384.969" y1="118.92" x2="389.544" y2="152.011" gradientUnits="userSpaceOnUse">
<stop stop-color="#7F270F"/>
<stop offset="1" stop-color="#7F270F" stop-opacity="0"/>
</linearGradient>
<linearGradient id="paint4_linear_5642_6913" x1="393.186" y1="1.49999" x2="280.001" y2="20.445" gradientUnits="userSpaceOnUse">
<stop stop-color="#111928"/>
<stop offset="1" stop-color="#111928" stop-opacity="0"/>
</linearGradient>
<linearGradient id="paint5_linear_5642_6913" x1="421.686" y1="239" x2="448.788" y2="298.071" gradientUnits="userSpaceOnUse">
<stop stop-color="#A4CAFE"/>
<stop offset="1" stop-color="#A4CAFE" stop-opacity="0"/>
</linearGradient>
<linearGradient id="paint6_linear_5642_6913" x1="376.686" y1="281.5" x2="369.473" y2="243.828" gradientUnits="userSpaceOnUse">
<stop stop-color="#A4CAFE"/>
<stop offset="1" stop-color="#A4CAFE" stop-opacity="0"/>
</linearGradient>
<linearGradient id="paint7_linear_5642_6913" x1="398.035" y1="170.172" x2="396.308" y2="156.768" gradientUnits="userSpaceOnUse">
<stop stop-color="#A4CAFE"/>
<stop offset="1" stop-color="#A4CAFE" stop-opacity="0"/>
</linearGradient>
<linearGradient id="paint8_linear_5642_6913" x1="556.186" y1="458.5" x2="303.686" y2="257.5" gradientUnits="userSpaceOnUse">
<stop stop-color="#E1EFFE"/>
<stop offset="1" stop-color="#E1EFFE" stop-opacity="0"/>
</linearGradient>
<linearGradient id="paint9_linear_5642_6913" x1="329.686" y1="10" x2="387.686" y2="208" gradientUnits="userSpaceOnUse">
<stop stop-color="#1C64F2"/>
<stop offset="1" stop-color="#1C64F2" stop-opacity="0"/>
</linearGradient>
<linearGradient id="paint10_linear_5642_6913" x1="458.186" y1="383" x2="387.686" y2="234.5" gradientUnits="userSpaceOnUse">
<stop stop-color="#7F270F"/>
<stop offset="1" stop-color="#7F270F" stop-opacity="0"/>
</linearGradient>
<linearGradient id="paint11_linear_5642_6913" x1="325.009" y1="257.763" x2="266.826" y2="189.301" gradientUnits="userSpaceOnUse">
<stop stop-color="#7F270F"/>
<stop offset="1" stop-color="#7F270F" stop-opacity="0"/>
</linearGradient>
<linearGradient id="paint12_linear_5642_6913" x1="143.686" y1="-117.5" x2="225.94" y2="243.308" gradientUnits="userSpaceOnUse">
<stop stop-color="#1C64F2"/>
<stop offset="1" stop-color="#1C64F2" stop-opacity="0"/>
</linearGradient>
</defs>
</svg>
